<?xml version="1.0" encoding="iso-8859-1"?>
<!-- Generator: Adobe Illustrator 19.0.0, SVG Export Plug-In . SVG Version: 6.00 Build 0)  -->
<svg version="1.1" id="Layer_1" xmlns="http://www.w3.org/2000/svg" xmlns:xlink="http://www.w3.org/1999/xlink" x="0px" y="0px"
	 viewBox="0 0 512 512" style="enable-background:new 0 0 512 512;" xml:space="preserve">
<g id="Others">
</g>
<g id="Design">
</g>
<g id="SEO_x2F__Web">
</g>
<g id="Finance__x2F__Money">
</g>
<g id="E-Commerce__x2F__Shopping">
</g>
<g id="Strategy">
	<g id="target">
		
			<radialGradient id="SVGID_1_" cx="256" cy="258" r="256" gradientTransform="matrix(1 0 0 -1 0 514)" gradientUnits="userSpaceOnUse">
			<stop  offset="0.5044" style="stop-color:#FCBE41"/>
			<stop  offset="0.9949" style="stop-color:#FCB23F"/>
		</radialGradient>
		<circle style="fill:url(#SVGID_1_);" cx="256" cy="256" r="256"/>
		<g>
			<g>
				<path style="fill:#33495F;" d="M256.5,453.573c-5.07,0-9.5-4.11-9.5-9.18V298.438c0-5.069,4.43-9.18,9.5-9.18s9.5,4.11,9.5,9.18
					v145.955C266,449.463,261.57,453.573,256.5,453.573z"/>
			</g>
			<g>
				<path style="fill:#33495F;" d="M181.72,468.786c-1.188,0-2.396-0.232-3.561-0.724c-4.672-1.969-6.863-7.352-4.895-12.023
					l61.5-145.947c1.969-4.674,7.351-6.866,12.024-4.896c4.672,1.969,6.863,7.353,4.895,12.023l-61.5,145.948
					C188.705,466.677,185.302,468.786,181.72,468.786z"/>
			</g>
			<g>
				<path style="fill:#33495F;" d="M331.079,468.786c-3.583,0-6.985-2.109-8.463-5.618L261.114,317.22
					c-1.968-4.671,0.223-10.055,4.895-12.023c4.671-1.969,10.055,0.222,12.024,4.896l61.5,145.947
					c1.969,4.672-0.223,10.055-4.895,12.023C333.476,468.553,332.267,468.786,331.079,468.786z"/>
			</g>
			<g>
				<path style="fill:#2B3E51;" d="M256.5,433.379c-5.07,0-9.5-4.11-9.5-9.18V298.438c0-5.069,4.43-9.18,9.5-9.18s9.5,4.11,9.5,9.18
					v125.761C266,429.269,261.57,433.379,256.5,433.379z"/>
			</g>
			<g>
				<path style="fill:#2B3E51;" d="M196.446,433.84c-1.188,0-2.396-0.232-3.561-0.724c-4.672-1.968-6.863-7.352-4.895-12.022
					l46.774-111.002c1.969-4.673,7.352-6.866,12.024-4.896c4.672,1.969,6.863,7.353,4.895,12.023l-46.775,111.002
					C203.431,431.73,200.027,433.84,196.446,433.84z"/>
			</g>
			<g>
				<path style="fill:#2B3E51;" d="M316.353,433.839c-3.582,0-6.985-2.109-8.463-5.618L261.114,317.22
					c-1.968-4.671,0.223-10.055,4.895-12.023c4.672-1.972,10.055,0.222,12.024,4.896l46.774,111.001
					c1.969,4.671-0.223,10.055-4.895,12.022C318.749,433.607,317.541,433.839,316.353,433.839z"/>
			</g>
			<circle style="fill:#E94B35;" cx="256.399" cy="243.361" r="165.233"/>
			<circle style="fill:#ECF0F1;" cx="256.399" cy="243.361" r="136.317"/>
			<circle style="fill:#E94B35;" cx="256.399" cy="243.361" r="107.401"/>
			<circle style="fill:#ECF0F1;" cx="256.399" cy="243.361" r="78.486"/>
			<circle style="fill:#E94B35;" cx="256.399" cy="243.361" r="49.57"/>
			<circle style="fill:#ECF0F1;" cx="256.399" cy="243.361" r="20.654"/>
		</g>
		<path style="opacity:0.5;fill:#33495F;enable-background:new    ;" d="M255.795,239.416c-0.774,0-1.554,0.243-2.218,0.747
			l-131.283,99.73c1.433,1.987,2.905,3.943,4.423,5.862l131.302-99.744c1.615-1.228,1.93-3.53,0.703-5.146
			C258,239.916,256.904,239.416,255.795,239.416z"/>
		<polygon style="fill:#8F3FAF;" points="164.779,176.521 92.414,121.549 48.273,134.129 78.198,156.861 93.97,152.127 
			84.203,161.423 103.073,175.757 115.139,172.819 108.383,179.791 120.639,189.102 		"/>
		<g>
			<path style="fill:#F2C500;" d="M255.795,247.031c-0.774,0-1.554-0.243-2.218-0.747L91.303,123.012
				c-1.615-1.228-1.93-3.53-0.703-5.146c1.227-1.614,3.53-1.928,5.145-0.703l162.274,123.272c1.615,1.228,1.93,3.53,0.703,5.146
				C258,246.531,256.904,247.031,255.795,247.031z"/>
		</g>
		<polygon style="fill:#9C56B8;" points="166.172,129.163 152.283,118.612 146.66,137.396 146.948,114.559 121.937,95.56 
			112.985,116.281 116.833,91.683 93.807,74.19 93.524,120.087 165.89,175.06 		"/>
	</g>
</g>
<g>
</g>
<g>
</g>
<g>
</g>
<g>
</g>
<g>
</g>
<g>
</g>
<g>
</g>
<g>
</g>
<g>
</g>
<g>
</g>
<g>
</g>
<g>
</g>
<g>
</g>
<g>
</g>
<g>
</g>
</svg>
