<?xml version="1.0" standalone="no"?><!DOCTYPE svg PUBLIC "-//W3C//DTD SVG 1.1//EN" "http://www.w3.org/Graphics/SVG/1.1/DTD/svg11.dtd"><svg class="icon" height="512" viewBox="0 0 1024 1024" version="1.1" xmlns="http://www.w3.org/2000/svg"><path d="M861.069382 382.290747c14.418747 40.581172 22.273293 84.247273 22.273293 129.711838 0 214.217697-174.277818 388.495515-388.495515 388.495515-214.216404 0-388.494222-174.277818-388.494222-388.495515 0-214.216404 174.277818-388.499394 388.494222-388.499394 66.459152 0 129.075717 16.782222 183.83903 46.323071l54.908121-46.686384c-19.484444-11.980283-39.888162-22.515071-61.151677-31.506101-56.26699-23.802828-116.019717-35.868444-177.595475-35.868444s-121.328485 12.065616-177.600646 35.868444c-54.328889 22.980525-103.121455 55.873939-145.009778 97.758384-41.889616 41.888323-74.777859 90.682182-97.758384 145.009778C50.675523 390.668929 38.609907 450.421657 38.609907 512.001293c0 61.575758 12.065616 121.328485 35.868444 177.596768 22.980525 54.332768 55.873939 103.121455 97.758384 145.009778 41.888323 41.888323 90.680889 74.777859 145.009778 97.762263 56.26699 23.797657 116.019717 35.864566 177.600646 35.864566 61.575758 0 121.328485-12.066909 177.595475-35.864566 54.334061-22.984404 103.121455-55.873939 145.011071-97.762263 41.888323-41.888323 74.777859-90.67701 97.762263-145.009778 23.797657-56.268283 35.863273-116.02101 35.863273-177.596768 0-60.969374-11.832889-120.145455-35.166384-175.923717L861.069382 382.290747zM494.84716 228.018424c-75.853576 0-147.171556 29.539556-200.807434 83.176727C240.402554 364.829737 210.866877 436.14901 210.866877 512.001293c0 75.853576 29.535677 147.167677 83.172848 200.803556 53.641051 53.635879 124.953859 83.176727 200.807434 83.176727 75.853576 0 147.166384-29.540848 200.803556-83.176727 53.635879-53.635879 83.176727-124.94998 83.176727-200.803556 0-23.231354-2.783677-46.034747-8.167434-68.040404-0.312889 0.005172-0.620606 0.020687-0.933495 0.020687l-0.005172 0c-3.576242 0-7.262384-0.349091-10.979556-1.035636l-45.248646-6.520242-12.408242 10.536081c6.489212 20.534303 9.999515 42.383515 9.999515 65.039515 0 119.232646-97.004606 216.237253-216.242424 216.237253-119.232646 0-216.237253-97.004606-216.237253-216.237253 0-119.236525 97.004606-216.242424 216.237253-216.242424 33.545051 0 65.329131 7.677414 93.692121 21.369535l14.131717-11.914343-0.283152-45.424485c-0.081455-3.550384 0.201697-7.045172 0.808081-10.449455C569.281099 235.351919 532.630432 228.018424 494.84716 228.018424zM984.676008 185.280646c-2.020848-7.116283-8.016162-12.399192-15.32897-13.504646l-67.150869-10.152081 0.787394-68.292525c0.085333-7.383919-4.146424-14.142061-10.828283-17.282586-6.681859-3.14699-14.585535-2.106182-20.222707 2.671192l-206.63596 174.969535c-4.161939 3.525818-6.595232 8.687192-6.671515 14.142061l-0.84299 62.681212-119.656727 101.32299c-12.873697-6.963717-27.61697-10.918788-43.278222-10.918788-50.307879 0-91.085576 40.777697-91.085576 91.085576 0 50.304 40.777697 91.086869 91.085576 91.086869 50.302707 0 91.085576-40.782869 91.085576-91.086869 0-13.570586-2.989253-26.433939-8.312242-37.999192l117.448404-99.449535 61.964929 9.49398c5.394101 0.828768 10.883879-0.726626 15.05099-4.252444l206.630788-174.969535C984.361826 200.043313 986.690392 192.402101 984.676008 185.280646z" /></svg>